STARTFONT 2.1
COMMENT  
COMMENT  WARNING:  This bdf file was generated from an X server using
COMMENT  xbdfdump.  The resulting font is subject to the same copyright,
COMMENT  license, and trademark restrictions as the original font.  The
COMMENT  author and distributors of xbdfdump disclaim all liability for
COMMENT  misuse of the program or its output.
COMMENT  
FONT -phaisarn-angsana-bold-i-normal--16-160-75-75-p-75-tis620-0
SIZE 16 75 75
FONTBOUNDINGBOX 36 46 -11 -14
STARTPROPERTIES 26
FOUNDRY "Phaisarn"
FAMILY_NAME "Angsana"
WEIGHT_NAME "bold"
SLANT "i"
SETWIDTH_NAME "normal"
ADD_STYLE_NAME ""
PIXEL_SIZE 16
POINT_SIZE 160
RESOLUTION_X 75
RESOLUTION_Y 75
SPACING "p"
AVERAGE_WIDTH 75
CHARSET_REGISTRY "tis620"
CHARSET_ENCODING "0"
COPYRIGHT "Angsana by Pt-TITech 1997"
RAW_PIXELSIZE 1000
RAW_POINTSIZE "N"
RAW_ASCENT "CIRCUMFLEX_ACCENT"
RAW_DESCENT "RAW_FIGURE_WIDTH"
RAW_AVERAGE_WIDTH 2994
FACE_NAME "Angsana BoldInclined"
WEIGHT 10
X_HEIGHT 10
QUAD_WIDTH 13
FONT_ASCENT 30
FONT_DESCENT 10
ENDPROPERTIES
CHARS 199
STARTCHAR space
ENCODING 32
SWIDTH 300 0
DWIDTH 5 0
BBX 0 0 0 0
BITMAP
ENDCHAR
STARTCHAR exclam
ENCODING 33
SWIDTH 480 0
DWIDTH 8 0
BBX 6 14 1 0
BITMAP
0c
1c
1c
18
18
10
30
20
20
20
00
e0
e0
e0
ENDCHAR
STARTCHAR quotedbl
ENCODING 34
SWIDTH 720 0
DWIDTH 12 0
BBX 8 7 3 7
BITMAP
63
e7
e7
c6
c6
84
84
ENDCHAR
STARTCHAR numbersign
ENCODING 35
SWIDTH 600 0
DWIDTH 10 0
BBX 10 14 1 0
BITMAP
1880
1880
1180
1180
ffc0
ffc0
3100
2300
ffc0
ffc0
6200
6200
4600
4600
ENDCHAR
STARTCHAR dollar
ENCODING 36
SWIDTH 600 0
DWIDTH 10 0
BBX 9 17 1 -2
BITMAP
0200
0f00
1b80
3280
3480
3c00
3c00
1c00
0e00
0f00
0b00
5300
5300
f600
7c00
2000
2000
ENDCHAR
STARTCHAR percent
ENCODING 37
SWIDTH 1020 0
DWIDTH 17 0
BBX 14 15 2 -1
BITMAP
180c
6808
6c10
cc20
cc40
d880
5900
6318
0268
046c
08cc
10cc
20c8
40d8
c070
ENDCHAR
STARTCHAR ampersand
ENCODING 38
SWIDTH 960 0
DWIDTH 16 0
BBX 14 14 1 0
BITMAP
00e0
0130
0330
0730
0760
0780
07a4
1b98
3390
63e0
e1e0
f1e0
7bfc
3c78
ENDCHAR
STARTCHAR apostrophe
ENCODING 39
SWIDTH 360 0
DWIDTH 6 0
BBX 3 7 3 7
BITMAP
60
e0
e0
c0
c0
80
80
ENDCHAR
STARTCHAR parenleft
ENCODING 40
SWIDTH 420 0
DWIDTH 7 0
BBX 8 18 1 -4
BITMAP
01
06
0c
18
30
70
60
60
e0
e0
e0
c0
c0
c0
40
40
20
20
ENDCHAR
STARTCHAR parenright
ENCODING 41
SWIDTH 420 0
DWIDTH 7 0
BBX 8 18 -2 -4
BITMAP
04
04
02
02
02
03
03
03
07
07
06
0e
0e
0c
18
30
60
80
ENDCHAR
STARTCHAR asterisk
ENCODING 42
SWIDTH 600 0
DWIDTH 10 0
BBX 8 8 3 6
BITMAP
18
18
cb
ff
18
3c
66
66
ENDCHAR
STARTCHAR plus
ENCODING 43
SWIDTH 720 0
DWIDTH 12 0
BBX 11 12 1 1
BITMAP
0400
0400
0400
0400
0400
0400
ffe0
0400
0400
0400
0400
0400
ENDCHAR
STARTCHAR comma
ENCODING 44
SWIDTH 300 0
DWIDTH 5 0
BBX 4 6 0 -3
BITMAP
70
70
70
20
20
c0
ENDCHAR
STARTCHAR minus
ENCODING 45
SWIDTH 420 0
DWIDTH 7 0
BBX 7 2 0 4
BITMAP
7e
fc
ENDCHAR
STARTCHAR period
ENCODING 46
SWIDTH 300 0
DWIDTH 5 0
BBX 3 3 0 0
BITMAP
e0
e0
e0
ENDCHAR
STARTCHAR slash
ENCODING 47
SWIDTH 360 0
DWIDTH 6 0
BBX 10 14 -2 0
BITMAP
00c0
0080
0100
0300
0200
0600
0400
0800
1800
1000
3000
2000
4000
c000
ENDCHAR
STARTCHAR 0
ENCODING 48
SWIDTH 600 0
DWIDTH 10 0
BBX 9 14 1 0
BITMAP
0600
1900
1980
3180
7180
7380
6380
e300
e700
c700
c600
cc00
4c00
3000
ENDCHAR
STARTCHAR 1
ENCODING 49
SWIDTH 600 0
DWIDTH 10 0
BBX 9 14 0 0
BITMAP
0380
1f00
0700
0700
0700
0600
0e00
0e00
0c00
1c00
1c00
1800
3800
fe00
ENDCHAR
STARTCHAR 2
ENCODING 50
SWIDTH 600 0
DWIDTH 10 0
BBX 10 14 0 0
BITMAP
0700
1f80
13c0
31c0
01c0
0180
0380
0300
0600
0c00
1880
2100
7f00
fe00
ENDCHAR
STARTCHAR 3
ENCODING 51
SWIDTH 600 0
DWIDTH 10 0
BBX 10 14 0 0
BITMAP
0780
08c0
00c0
00c0
0180
0600
1f00
0380
0180
0180
0180
0300
f300
7c00
ENDCHAR
STARTCHAR 4
ENCODING 52
SWIDTH 600 0
DWIDTH 10 0
BBX 10 14 0 0
BITMAP
00c0
01c0
0380
0580
0780
0b00
1300
2700
4600
ff80
ff00
0e00
0c00
0c00
ENDCHAR
STARTCHAR 5
ENCODING 53
SWIDTH 600 0
DWIDTH 10 0
BBX 10 14 1 0
BITMAP
0fc0
0f80
1000
1000
3e00
3f00
0700
0700
0300
0300
0300
4200
e400
7800
ENDCHAR
STARTCHAR 6
ENCODING 54
SWIDTH 600 0
DWIDTH 10 0
BBX 10 14 1 0
BITMAP
01c0
0600
0c00
1800
3800
7e00
7300
6380
e380
e380
e700
4700
6e00
3800
ENDCHAR
STARTCHAR 7
ENCODING 55
SWIDTH 600 0
DWIDTH 10 0
BBX 9 14 2 0
BITMAP
3f80
7f00
8300
0200
0600
0400
0800
0800
1000
3000
2000
4000
4000
8000
ENDCHAR
STARTCHAR 8
ENCODING 56
SWIDTH 600 0
DWIDTH 10 0
BBX 9 14 1 0
BITMAP
0e00
1900
3980
3980
3980
1b00
1c00
2e00
6700
c700
c700
c600
4600
3800
ENDCHAR
STARTCHAR 9
ENCODING 57
SWIDTH 600 0
DWIDTH 10 0
BBX 10 14 1 0
BITMAP
0700
1d80
3880
39c0
71c0
71c0
7180
3380
1f80
0700
0600
0c00
3800
e000
ENDCHAR
STARTCHAR colon
ENCODING 58
SWIDTH 420 0
DWIDTH 7 0
BBX 5 9 1 0
BITMAP
30
38
38
00
00
00
e0
e0
e0
ENDCHAR
STARTCHAR semicolon
ENCODING 59
SWIDTH 420 0
DWIDTH 7 0
BBX 6 12 0 -3
BITMAP
18
1c
18
00
00
00
70
70
30
30
20
c0
ENDCHAR
STARTCHAR less
ENCODING 60
SWIDTH 720 0
DWIDTH 12 0
BBX 11 10 1 2
BITMAP
0020
01e0
0700
1c00
f000
f000
1c00
0700
01e0
0020
ENDCHAR
STARTCHAR equal
ENCODING 61
SWIDTH 720 0
DWIDTH 12 0
BBX 11 4 1 5
BITMAP
ffe0
0000
0000
ffe0
ENDCHAR
STARTCHAR greater
ENCODING 62
SWIDTH 720 0
DWIDTH 12 0
BBX 11 10 1 2
BITMAP
8000
f000
1c00
0700
01e0
01e0
0700
1c00
f000
8000
ENDCHAR
STARTCHAR question
ENCODING 63
SWIDTH 600 0
DWIDTH 10 0
BBX 8 14 2 0
BITMAP
1c
22
63
73
07
06
0c
30
20
20
00
e0
e0
e0
ENDCHAR
STARTCHAR at
ENCODING 64
SWIDTH 1020 0
DWIDTH 17 0
BBX 18 19 0 -5
BITMAP
01f000
070c00
180200
200100
60d880
41b880
433880
833080
873080
873080
8e7100
8e6100
8ee200
473840
400080
200100
100600
0e1800
01e000
ENDCHAR
STARTCHAR A
ENCODING 65
SWIDTH 840 0
DWIDTH 14 0
BBX 14 14 -1 0
BITMAP
0008
0018
0030
0070
00f0
0170
0170
0270
0470
0ff0
1870
1070
6070
f1fc
ENDCHAR
STARTCHAR B
ENCODING 66
SWIDTH 840 0
DWIDTH 14 0
BBX 15 14 -1 0
BITMAP
0ff8
079c
070e
070e
071c
0e38
0fc0
0e70
1c38
1c38
1c38
1c78
38f0
ff80
ENDCHAR
STARTCHAR C
ENCODING 67
SWIDTH 840 0
DWIDTH 14 0
BBX 14 14 1 0
BITMAP
03fc
0e1c
1c08
3808
7000
7000
f000
e000
e000
e000
e000
7020
78c0
1f00
ENDCHAR
STARTCHAR D
ENCODING 68
SWIDTH 900 0
DWIDTH 15 0
BBX 16 14 -1 0
BITMAP
0ff8
038e
078e
0707
0707
0707
0f07
0e0f
0e0e
1e0e
1c1c
1c38
3fe0
ff80
ENDCHAR
STARTCHAR E
ENCODING 69
SWIDTH 840 0
DWIDTH 14 0
BBX 15 14 -1 0
BITMAP
0ffe
0786
0702
0700
0f10
0e30
0fe0
0e20
1c20
1c00
1c04
3c18
3870
fff0
ENDCHAR
STARTCHAR F
ENCODING 70
SWIDTH 840 0
DWIDTH 14 0
BBX 15 14 0 0
BITMAP
0ffe
0706
0704
0702
0e10
0e20
0fe0
0e20
1c20
1c00
1c00
3800
3800
fe00
ENDCHAR
STARTCHAR G
ENCODING 71
SWIDTH 900 0
DWIDTH 15 0
BBX 14 14 1 0
BITMAP
03fc
0f1c
1c08
3808
7000
7000
e000
e1f8
e070
e0f0
60e0
70e0
39e0
0f80
ENDCHAR
STARTCHAR H
ENCODING 72
SWIDTH 960 0
DWIDTH 16 0
BBX 19 14 -1 0
BITMAP
0fefe0
078780
070780
070700
070700
0e0f00
0ffe00
0e0e00
1c1e00
1c1c00
1c1c00
383c00
383c00
fefe00
ENDCHAR
STARTCHAR I
ENCODING 73
SWIDTH 480 0
DWIDTH 8 0
BBX 11 14 -1 0
BITMAP
0fe0
0780
0780
0700
0700
0f00
0e00
0e00
1e00
1c00
1c00
3c00
3c00
fe00
ENDCHAR
STARTCHAR J
ENCODING 74
SWIDTH 600 0
DWIDTH 10 0
BBX 13 14 0 0
BITMAP
03f8
00e0
00e0
01c0
01c0
01c0
0380
0380
0380
0700
6700
ee00
cc00
3800
ENDCHAR
STARTCHAR K
ENCODING 75
SWIDTH 840 0
DWIDTH 14 0
BBX 16 14 -1 0
BITMAP
0fdf
078c
0718
0720
0e40
0ec0
0fc0
1fc0
1ce0
1ce0
1ce0
3870
38f0
fff8
ENDCHAR
STARTCHAR L
ENCODING 76
SWIDTH 780 0
DWIDTH 13 0
BBX 13 14 -1 0
BITMAP
0fe0
0780
0780
0700
0700
0f00
0e00
0e00
1e00
1c00
1c08
3c10
3870
fff0
ENDCHAR
STARTCHAR M
ENCODING 77
SWIDTH 1140 0
DWIDTH 19 0
BBX 21 14 -1 0
BITMAP
0f80f8
0781e0
0783e0
0783c0
0785c0
0b8dc0
0b8b80
0b9380
11e380
11e700
11c700
218700
218f00
f93f80
ENDCHAR
STARTCHAR N
ENCODING 78
SWIDTH 900 0
DWIDTH 15 0
BBX 18 14 -1 0
BITMAP
1f87c0
078100
07c100
07c100
05c200
09e200
08e200
08f400
107400
107800
103800
203800
201800
f81000
ENDCHAR
STARTCHAR O
ENCODING 79
SWIDTH 900 0
DWIDTH 15 0
BBX 14 14 1 0
BITMAP
01e0
0638
1c18
381c
781c
701c
703c
f038
e038
e070
e070
60e0
71c0
1e00
ENDCHAR
STARTCHAR P
ENCODING 80
SWIDTH 780 0
DWIDTH 13 0
BBX 15 14 -1 0
BITMAP
0ff8
039c
038e
078e
070e
071c
0f3c
0ff0
0e00
1e00
1c00
1c00
3c00
ff00
ENDCHAR
STARTCHAR Q
ENCODING 81
SWIDTH 900 0
DWIDTH 15 0
BBX 14 18 1 -4
BITMAP
01e0
0638
1c18
381c
381c
701c
701c
f038
e038
e078
e070
e0e0
71c0
3f00
1800
2404
7ff8
9fc0
ENDCHAR
STARTCHAR R
ENCODING 82
SWIDTH 840 0
DWIDTH 14 0
BBX 14 14 -1 0
BITMAP
0ff0
0738
071c
071c
071c
0e38
0e70
0fe0
1ee0
1ce0
1ce0
3870
3870
fe7c
ENDCHAR
STARTCHAR S
ENCODING 83
SWIDTH 720 0
DWIDTH 12 0
BBX 13 14 0 0
BITMAP
07f8
0c70
1c30
1c10
1e00
0e00
0f00
0780
03c0
41c0
41c0
41c0
e380
ff00
ENDCHAR
STARTCHAR T
ENCODING 84
SWIDTH 780 0
DWIDTH 13 0
BBX 13 14 2 0
BITMAP
3ff8
73b8
4710
4708
0700
0e00
0e00
0e00
1c00
1c00
1c00
3c00
3c00
fe00
ENDCHAR
STARTCHAR U
ENCODING 85
SWIDTH 900 0
DWIDTH 15 0
BBX 15 14 2 0
BITMAP
7f3e
3c0c
3808
3808
3810
7010
7010
7020
f020
e020
e040
e040
7180
3e00
ENDCHAR
STARTCHAR V
ENCODING 86
SWIDTH 840 0
DWIDTH 14 0
BBX 14 14 2 0
BITMAP
fc3c
7818
7810
7020
7040
7080
7100
7200
7400
7c00
7800
7000
6000
4000
ENDCHAR
STARTCHAR W
ENCODING 87
SWIDTH 1140 0
DWIDTH 19 0
BBX 19 14 3 0
BITMAP
fbf3e0
71c180
71c100
61c300
618600
638c00
658800
699000
e9a000
f3c000
e3c000
c38000
c30000
820000
ENDCHAR
STARTCHAR X
ENCODING 88
SWIDTH 840 0
DWIDTH 14 0
BBX 17 14 -1 0
BITMAP
1f8f80
070700
070400
038800
039000
01e000
01c000
01e000
02e000
04f000
087000
107800
707800
f8fc00
ENDCHAR
STARTCHAR Y
ENCODING 89
SWIDTH 780 0
DWIDTH 13 0
BBX 13 14 2 0
BITMAP
7e78
3c30
3820
1c40
1c80
1c80
1d00
0e00
1c00
1c00
1c00
3800
3c00
fe00
ENDCHAR
STARTCHAR Z
ENCODING 90
SWIDTH 780 0
DWIDTH 13 0
BBX 15 14 -1 0
BITMAP
0ffe
0c3c
0878
1070
00f0
01e0
03c0
0780
0f00
1e00
1c10
3c30
78e0
ffe0
ENDCHAR
STARTCHAR bracketleft
ENCODING 91
SWIDTH 420 0
DWIDTH 7 0
BBX 10 18 -1 -4
BITMAP
07c0
0700
0600
0e00
0e00
0c00
1c00
1c00
1800
1800
3800
3000
3000
7000
6000
6000
e000
f800
ENDCHAR
STARTCHAR backslash
ENCODING 92
SWIDTH 360 0
DWIDTH 6 0
BBX 2 14 2 0
BITMAP
80
80
80
80
80
80
80
80
40
40
40
40
40
40
ENDCHAR
STARTCHAR bracketright
ENCODING 93
SWIDTH 420 0
DWIDTH 7 0
BBX 10 18 -2 -4
BITMAP
07c0
01c0
0180
0180
0380
0300
0300
0700
0600
0600
0e00
0e00
0c00
1c00
1c00
1800
3800
f800
ENDCHAR
STARTCHAR asciicircum
ENCODING 94
SWIDTH 720 0
DWIDTH 12 0
BBX 9 7 2 7
BITMAP
0800
1c00
1400
3600
6300
4100
c180
ENDCHAR
STARTCHAR underscore
ENCODING 95
SWIDTH 600 0
DWIDTH 10 0
BBX 11 1 -2 -5
BITMAP
ffe0
ENDCHAR
STARTCHAR grave
ENCODING 96
SWIDTH 420 0
DWIDTH 7 0
BBX 4 3 2 11
BITMAP
e0
20
10
ENDCHAR
STARTCHAR a
ENCODING 97
SWIDTH 600 0
DWIDTH 10 0
BBX 10 10 0 0
BITMAP
0ec0
1bc0
3180
7380
7380
6300
e700
e740
ff80
6700
ENDCHAR
STARTCHAR b
ENCODING 98
SWIDTH 600 0
DWIDTH 10 0
BBX 10 14 0 0
BITMAP
3c00
1c00
1c00
1800
1800
3f80
39c0
31c0
71c0
7180
6380
e300
e600
3800
ENDCHAR
STARTCHAR c
ENCODING 99
SWIDTH 540 0
DWIDTH 9 0
BBX 8 10 1 0
BITMAP
06
19
33
60
e0
e0
e0
e3
fc
78
ENDCHAR
STARTCHAR d
ENCODING 100
SWIDTH 600 0
DWIDTH 10 0
BBX 11 14 0 0
BITMAP
01e0
00e0
00c0
00c0
07c0
1980
3180
7380
7380
6300
e700
ef40
f780
6700
ENDCHAR
STARTCHAR e
ENCODING 101
SWIDTH 540 0
DWIDTH 9 0
BBX 9 10 0 0
BITMAP
0300
0d80
3980
7300
7700
fc00
e000
e100
f200
3c00
ENDCHAR
STARTCHAR f
ENCODING 102
SWIDTH 420 0
DWIDTH 7 0
BBX 14 19 -3 -5
BITMAP
0018
006c
00cc
01c0
0380
07e0
0380
0300
0700
0700
0700
0600
0e00
0e00
0e00
0c00
1c00
d800
6000
ENDCHAR
STARTCHAR g
ENCODING 103
SWIDTH 600 0
DWIDTH 10 0
BBX 12 15 -1 -5
BITMAP
0700
18f0
38c0
31c0
31c0
1f00
2000
3000
3f00
3f80
6f80
c180
c180
6300
3e00
ENDCHAR
STARTCHAR h
ENCODING 104
SWIDTH 720 0
DWIDTH 12 0
BBX 10 14 0 0
BITMAP
1c00
1c00
1c00
1800
1800
39c0
3bc0
35c0
3980
7380
7380
6340
e3c0
e300
ENDCHAR
STARTCHAR i
ENCODING 105
SWIDTH 360 0
DWIDTH 6 0
BBX 6 14 0 0
BITMAP
1c
1c
1c
00
00
78
38
30
70
70
60
e8
f8
e0
ENDCHAR
STARTCHAR j
ENCODING 106
SWIDTH 360 0
DWIDTH 6 0
BBX 9 19 -3 -5
BITMAP
0380
0380
0380
0000
0000
0f00
0700
0700
0600
0600
0e00
0e00
0c00
0c00
1c00
1800
1800
d000
6000
ENDCHAR
STARTCHAR k
ENCODING 107
SWIDTH 600 0
DWIDTH 10 0
BBX 11 14 0 0
BITMAP
1e00
0c00
0c00
1c00
1c00
19e0
3900
3a00
3600
7f00
7700
6740
e380
e300
ENDCHAR
STARTCHAR l
ENCODING 108
SWIDTH 360 0
DWIDTH 6 0
BBX 6 14 0 0
BITMAP
3c
1c
18
18
38
30
30
70
70
60
60
e8
f0
e0
ENDCHAR
STARTCHAR m
ENCODING 109
SWIDTH 960 0
DWIDTH 16 0
BBX 15 10 0 0
BITMAP
79ce
3bde
3dfe
35ac
39cc
739c
739c
631a
e71c
e718
ENDCHAR
STARTCHAR n
ENCODING 110
SWIDTH 720 0
DWIDTH 12 0
BBX 10 10 0 0
BITMAP
79c0
3bc0
3dc0
3580
7980
7380
6380
6340
e380
e300
ENDCHAR
STARTCHAR o
ENCODING 111
SWIDTH 600 0
DWIDTH 10 0
BBX 9 10 1 0
BITMAP
0600
1900
3180
6180
e180
e300
c300
c600
4c00
7000
ENDCHAR
STARTCHAR p
ENCODING 112
SWIDTH 600 0
DWIDTH 10 0
BBX 13 14 -3 -4
BITMAP
0f70
07f8
0638
0e38
0e38
0c30
0c70
1c60
1cc0
1b00
3800
3800
7800
fc00
ENDCHAR
STARTCHAR q
ENCODING 113
SWIDTH 600 0
DWIDTH 10 0
BBX 10 14 0 -4
BITMAP
0ec0
19c0
3180
7180
7380
e380
e700
ef00
f700
6600
0600
0e00
0e00
3f00
ENDCHAR
STARTCHAR r
ENCODING 114
SWIDTH 480 0
DWIDTH 8 0
BBX 8 10 0 0
BITMAP
7b
37
37
38
68
70
60
60
e0
e0
ENDCHAR
STARTCHAR s
ENCODING 115
SWIDTH 480 0
DWIDTH 8 0
BBX 8 10 0 0
BITMAP
1d
33
31
38
3c
1e
4e
86
cc
b0
ENDCHAR
STARTCHAR t
ENCODING 116
SWIDTH 360 0
DWIDTH 6 0
BBX 6 12 0 0
BITMAP
04
08
18
7c
38
30
70
70
60
ec
e8
f0
ENDCHAR
STARTCHAR u
ENCODING 117
SWIDTH 720 0
DWIDTH 12 0
BBX 10 10 1 0
BITMAP
79c0
31c0
7180
7180
7380
6780
e700
ef40
f780
e700
ENDCHAR
STARTCHAR v
ENCODING 118
SWIDTH 540 0
DWIDTH 9 0
BBX 8 10 1 0
BITMAP
23
f3
73
31
32
32
34
38
30
20
ENDCHAR
STARTCHAR w
ENCODING 119
SWIDTH 840 0
DWIDTH 14 0
BBX 13 10 1 0
BITMAP
3138
f138
7318
7710
7710
7b20
73c0
6380
4300
4200
ENDCHAR
STARTCHAR x
ENCODING 120
SWIDTH 600 0
DWIDTH 10 0
BBX 12 10 -1 0
BITMAP
3c70
0cf0
0f00
0e00
0600
0600
0700
0f00
f3e0
e380
ENDCHAR
STARTCHAR y
ENCODING 121
SWIDTH 540 0
DWIDTH 9 0
BBX 11 15 -2 -5
BITMAP
0ce0
3ce0
0e60
0e40
0e40
0e80
0e80
0e80
0f00
0e00
0c00
0c00
c800
f000
e000
ENDCHAR
STARTCHAR z
ENCODING 122
SWIDTH 480 0
DWIDTH 8 0
BBX 9 11 0 -2
BITMAP
3f80
3f00
2200
0400
0800
1000
2000
7300
fb00
1a00
0e00
ENDCHAR
STARTCHAR braceleft
ENCODING 123
SWIDTH 420 0
DWIDTH 7 0
BBX 9 18 1 -4
BITMAP
0380
0600
0c00
0c00
0c00
0c00
0800
1800
6000
e000
3000
3000
7000
6000
e000
c000
c000
7000
ENDCHAR
STARTCHAR bar
ENCODING 124
SWIDTH 300 0
DWIDTH 5 0
BBX 1 19 2 -5
BITMAP
80
80
80
80
80
80
80
80
80
80
80
80
80
80
80
80
80
80
80
ENDCHAR
STARTCHAR braceright
ENCODING 125
SWIDTH 420 0
DWIDTH 7 0
BBX 9 18 -2 -4
BITMAP
0700
0180
0180
0380
0300
0700
0600
0600
0380
0300
0c00
0800
1800
1800
1800
1800
3000
c000
ENDCHAR
STARTCHAR asciitilde
ENCODING 126
SWIDTH 720 0
DWIDTH 12 0
BBX 11 3 0 4
BITMAP
7820
5f40
83c0
ENDCHAR
STARTCHAR exclamdown
ENCODING 161
SWIDTH 720 0
DWIDTH 12 0
BBX 11 13 1 0
BITMAP
1f00
31c0
61e0
40e0
7ce0
70e0
70e0
70c0
61c0
61c0
e1c0
e180
e100
ENDCHAR
STARTCHAR cent
ENCODING 162
SWIDTH 780 0
DWIDTH 13 0
BBX 12 13 2 0
BITMAP
3c30
5c70
4e60
eee0
ace0
5ce0
1ce0
1cc0
1dc0
19c0
39c0
1980
0f00
ENDCHAR
STARTCHAR sterling
ENCODING 163
SWIDTH 900 0
DWIDTH 15 0
BBX 12 13 2 0
BITMAP
2630
7e30
5f70
d770
8660
9660
b660
66e0
0ee0
0ee0
0cc0
0ec0
0700
ENDCHAR
STARTCHAR currency
ENCODING 164
SWIDTH 780 0
DWIDTH 13 0
BBX 11 13 1 0
BITMAP
0f00
3fc0
61c0
5ce0
f4e0
e2e0
64c0
79c0
61c0
61c0
e1c0
e1c0
c180
ENDCHAR
STARTCHAR yen
ENCODING 165
SWIDTH 780 0
DWIDTH 13 0
BBX 12 13 1 0
BITMAP
0cc0
3fe0
7370
4070
dc70
f270
7260
7c60
6060
60e0
e0e0
e0e0
e0c0
ENDCHAR
STARTCHAR brokenbar
ENCODING 166
SWIDTH 960 0
DWIDTH 16 0
BBX 14 13 2 0
BITMAP
2404
6e0c
7f1c
9718
8618
a618
e638
4e38
0e30
3fb0
4e70
5c30
3830
ENDCHAR
STARTCHAR section
ENCODING 167
SWIDTH 600 0
DWIDTH 10 0
BBX 9 13 1 0
BITMAP
0300
0780
0980
0980
0780
0380
8300
4300
6300
3b00
1f00
0e00
0600
ENDCHAR
STARTCHAR diaeresis
ENCODING 168
SWIDTH 720 0
DWIDTH 12 0
BBX 11 13 1 0
BITMAP
0f00
3fc0
21e0
78e0
d8e0
8ce0
9cc0
79c0
19c0
39c0
39c0
3980
1f00
ENDCHAR
STARTCHAR copyright
ENCODING 169
SWIDTH 840 0
DWIDTH 14 0
BBX 11 13 1 0
BITMAP
0fc0
39c0
00e0
70e0
58e0
98e0
78e0
38e0
38e0
3fe0
3d20
3160
71c0
ENDCHAR
STARTCHAR ordfeminine
ENCODING 170
SWIDTH 780 0
DWIDTH 13 0
BBX 11 13 2 0
BITMAP
70e0
78e0
99c0
df00
fb00
f980
3b80
3b80
3b00
3300
7300
7600
7c00
ENDCHAR
STARTCHAR guillemotleft
ENCODING 171
SWIDTH 900 0
DWIDTH 15 0
BBX 13 13 2 0
BITMAP
2638
7f30
df60
97c0
86e0
9660
f6e0
66e0
0ee0
0ee0
0ec0
0dc0
1f80
ENDCHAR
STARTCHAR notsign
ENCODING 172
SWIDTH 1020 0
DWIDTH 17 0
BBX 16 13 1 0
BITMAP
1f83
31c7
61c6
40e6
fcee
30ce
70ce
71ce
61cc
63fc
95dc
958c
630c
ENDCHAR
STARTCHAR hyphen
ENCODING 173
SWIDTH 1020 0
DWIDTH 17 0
BBX 15 19 2 -6
BITMAP
1f06
638e
418e
c18c
f98c
619c
619c
639c
e31c
f318
cb38
d9f0
71e0
0000
0330
0730
0670
04e0
03c0
ENDCHAR
STARTCHAR registered
ENCODING 174
SWIDTH 840 0
DWIDTH 14 0
BBX 14 19 0 -6
BITMAP
01f0
0e38
083c
1f9c
0e1c
0c1c
0c38
1c38
7c38
9c38
9838
f8b0
6370
0270
1e70
2770
25e0
38e0
00e0
ENDCHAR
STARTCHAR macron
ENCODING 175
SWIDTH 840 0
DWIDTH 14 0
BBX 14 19 0 -6
BITMAP
03f0
0c38
081c
1f1c
0e1c
0c1c
0c38
1c38
3c38
5c38
9c38
9830
7270
0c70
1870
7870
7fe0
6ce0
00e0
ENDCHAR
STARTCHAR degree
ENCODING 176
SWIDTH 720 0
DWIDTH 12 0
BBX 12 19 0 -6
BITMAP
07b0
09e0
10c0
1f80
21c0
38c0
6cc0
4cc0
4cc0
3dc0
1dc0
0f80
0f00
0b00
7480
9c80
ab80
eb80
0f00
ENDCHAR
STARTCHAR plusminus
ENCODING 177
SWIDTH 1020 0
DWIDTH 17 0
BBX 14 13 2 0
BITMAP
3638
7f6c
d74c
87cc
978c
978c
e718
0718
0f18
0e18
0e18
0e18
0c38
ENDCHAR
STARTCHAR twosuperior
ENCODING 178
SWIDTH 1080 0
DWIDTH 18 0
BBX 17 13 1 0
BITMAP
0cc080
3de180
7f7380
e23300
c67300
cf7300
eb6700
e66700
7ce700
f97e00
f2ee00
e2c600
e1c600
ENDCHAR
STARTCHAR threesuperior
ENCODING 179
SWIDTH 1020 0
DWIDTH 17 0
BBX 15 13 2 0
BITMAP
1e02
6386
418e
c1ce
f9cc
618c
618c
e18c
e38c
f3f8
cbe4
dba4
2318
ENDCHAR
STARTCHAR acute
ENCODING 180
SWIDTH 780 0
DWIDTH 13 0
BBX 12 13 1 0
BITMAP
0fc0
30f0
6070
4070
ce70
de70
c6e0
c4e0
e8e0
70e0
e0e0
e0c0
e1c0
ENDCHAR
STARTCHAR mu
ENCODING 181
SWIDTH 780 0
DWIDTH 13 0
BBX 12 13 1 0
BITMAP
0cc0
3fe0
7370
6030
c730
cb70
c270
e660
fc60
f860
e060
e0e0
c0e0
ENDCHAR
STARTCHAR paragraph
ENCODING 182
SWIDTH 780 0
DWIDTH 13 0
BBX 10 13 2 0
BITMAP
1f00
73c0
41c0
c1c0
f9c0
61c0
6180
e180
f180
cb80
cb80
eb00
7200
ENDCHAR
STARTCHAR periodcentered
ENCODING 183
SWIDTH 840 0
DWIDTH 14 0
BBX 12 13 2 0
BITMAP
70e0
5970
9a70
9a70
7e70
3c70
3c60
3860
38e0
38e0
70e0
70c0
60c0
ENDCHAR
STARTCHAR cedilla
ENCODING 184
SWIDTH 720 0
DWIDTH 12 0
BBX 12 13 1 0
BITMAP
0e10
3be0
2dc0
7c00
1f00
1de0
1cc0
18c0
19c0
39c0
39c0
3980
ff80
ENDCHAR
STARTCHAR onesuperior
ENCODING 185
SWIDTH 900 0
DWIDTH 15 0
BBX 13 13 2 0
BITMAP
3018
d830
9870
9870
7870
3870
3860
3060
37c0
3ce0
3120
7120
70c0
ENDCHAR
STARTCHAR masculine
ENCODING 186
SWIDTH 840 0
DWIDTH 14 0
BBX 13 13 2 0
BITMAP
7038
5838
9830
9830
7870
3870
3870
3870
3060
3060
70e0
70e0
ffc0
ENDCHAR
STARTCHAR guillemotright
ENCODING 187
SWIDTH 840 0
DWIDTH 14 0
BBX 14 21 2 0
BITMAP
000c
000c
001c
0018
0018
0038
0038
0038
7030
9830
9830
7870
3870
3870
3860
3060
3060
30e0
70e0
71c0
ff80
ENDCHAR
STARTCHAR onequarter
ENCODING 188
SWIDTH 780 0
DWIDTH 13 0
BBX 13 13 0 0
BITMAP
0c38
3238
3238
3e30
7030
7230
7770
6570
6970
70e0
e0e0
e060
e0c0
ENDCHAR
STARTCHAR onehalf
ENCODING 189
SWIDTH 780 0
DWIDTH 13 0
BBX 15 21 0 0
BITMAP
0006
000e
000e
000c
000c
001c
001c
001c
0e18
1218
3238
3e38
3038
7238
7330
7530
68f0
70f0
f0f0
e060
e040
ENDCHAR
STARTCHAR threequarters
ENCODING 190
SWIDTH 960 0
DWIDTH 16 0
BBX 14 13 2 0
BITMAP
309c
589c
999c
d958
7a58
3a58
3c78
3c78
3c78
3870
3870
7070
7070
ENDCHAR
STARTCHAR questiondown
ENCODING 191
SWIDTH 960 0
DWIDTH 16 0
BBX 15 21 2 0
BITMAP
0002
0006
000e
000c
000c
000c
000c
001c
309c
d998
9998
fa98
3ab8
3eb8
3478
3470
3870
7870
7070
7070
7070
ENDCHAR
STARTCHAR Agrave
ENCODING 192
SWIDTH 840 0
DWIDTH 14 0
BBX 13 13 0 0
BITMAP
03e0
0c70
0838
1838
1f38
0c38
0c38
1c30
1c30
7c70
9870
9860
6040
ENDCHAR
STARTCHAR Aacute
ENCODING 193
SWIDTH 840 0
DWIDTH 14 0
BBX 13 13 1 0
BITMAP
3818
4c38
4c38
6c30
3c30
1c70
1870
1870
3c60
5e60
9be0
f1e0
60c0
ENDCHAR
STARTCHAR Acircumflex
ENCODING 194
SWIDTH 720 0
DWIDTH 12 0
BBX 12 13 0 0
BITMAP
1c30
3270
3260
7260
7ce0
60e0
70e0
78e0
60c0
e1c0
e1c0
e3c0
7f80
ENDCHAR
STARTCHAR Atilde
ENCODING 195
SWIDTH 660 0
DWIDTH 11 0
BBX 11 13 2 0
BITMAP
1c60
7f80
c700
f000
7e00
0700
0700
0700
0e00
3e00
4e00
4e00
3c00
ENDCHAR
STARTCHAR Adiaeresis
ENCODING 196
SWIDTH 720 0
DWIDTH 12 0
BBX 9 20 2 -7
BITMAP
1e00
6300
4180
c180
f980
6180
6180
e380
f300
cb00
cb00
eb00
7300
0300
0700
0600
0600
0600
0600
0600
ENDCHAR
STARTCHAR Aring
ENCODING 197
SWIDTH 720 0
DWIDTH 12 0
BBX 10 13 2 0
BITMAP
3f00
4380
81c0
1fc0
73c0
63c0
6180
e380
e380
f380
cb80
cb00
7300
ENDCHAR
STARTCHAR AE
ENCODING 198
SWIDTH 840 0
DWIDTH 14 0
BBX 13 20 0 -7
BITMAP
03e0
0c70
0878
1038
1f38
0c38
1c30
1c70
1c70
7870
9870
9860
6060
00e0
00e0
00e0
00c0
00c0
00c0
01c0
ENDCHAR
STARTCHAR Ccedilla
ENCODING 199
SWIDTH 720 0
DWIDTH 12 0
BBX 9 13 2 0
BITMAP
3e00
c380
8380
0380
0380
0380
0300
0300
1f00
3700
2700
2600
1c00
ENDCHAR
STARTCHAR Egrave
ENCODING 200
SWIDTH 780 0
DWIDTH 13 0
BBX 12 13 1 0
BITMAP
0f30
31e0
40e0
dde0
b7e0
e2c0
7cc0
71c0
61c0
61c0
e1c0
e180
e180
ENDCHAR
STARTCHAR Eacute
ENCODING 201
SWIDTH 840 0
DWIDTH 14 0
BBX 13 13 2 0
BITMAP
7018
d838
9830
9830
7870
3f70
3d70
3cf0
3760
3060
70e0
70e0
ffc0
ENDCHAR
STARTCHAR Ecircumflex
ENCODING 202
SWIDTH 780 0
DWIDTH 13 0
BBX 13 13 1 0
BITMAP
1fd8
63f8
c0f0
1f60
71e0
60e0
60e0
60c0
f1c0
c9c0
c9c0
ebc0
73c0
ENDCHAR
STARTCHAR Ediaeresis
ENCODING 203
SWIDTH 900 0
DWIDTH 15 0
BBX 13 13 2 0
BITMAP
3030
d848
9848
9870
78f0
1b30
3e70
3c70
3870
3060
3060
70e0
70e0
ENDCHAR
STARTCHAR Igrave
ENCODING 204
SWIDTH 1080 0
DWIDTH 18 0
BBX 16 13 2 0
BITMAP
30b3
714e
99ce
9bfc
7a98
36b8
34b8
34f8
38f0
38f0
7070
7070
6070
ENDCHAR
STARTCHAR Iacute
ENCODING 205
SWIDTH 720 0
DWIDTH 12 0
BBX 11 13 1 0
BITMAP
1f80
21c0
41e0
3ce0
74e0
62e0
74e0
f9c0
e1c0
e1c0
e1c0
6380
3c00
ENDCHAR
STARTCHAR Icircumflex
ENCODING 206
SWIDTH 720 0
DWIDTH 12 0
BBX 12 13 1 0
BITMAP
1f70
21e0
41e0
3fe0
00e0
38c0
69c0
c5c0
e9c0
f1c0
c180
c300
3c00
ENDCHAR
STARTCHAR Idiaeresis
ENCODING 207
SWIDTH 840 0
DWIDTH 14 0
BBX 11 13 3 0
BITMAP
03e0
03e0
02e0
74c0
84c0
89c0
99c0
f1c0
0180
0180
0380
0380
0380
ENDCHAR
STARTCHAR ETH
ENCODING 208
SWIDTH 660 0
DWIDTH 11 0
BBX 11 12 0 0
BITMAP
1860
24c0
2d80
1e00
0000
0000
0000
30c0
4980
8980
8f00
7c00
ENDCHAR
STARTCHAR Ntilde
ENCODING 209
SWIDTH 0 0
DWIDTH 0 0
BBX 11 5 -6 15
BITMAP
6060
b0c0
91c0
6380
3c00
ENDCHAR
STARTCHAR Ograve
ENCODING 210
SWIDTH 540 0
DWIDTH 9 0
BBX 7 13 2 0
BITMAP
38
de
0e
0e
0e
0c
1c
1c
1c
1c
18
18
38
ENDCHAR
STARTCHAR Oacute
ENCODING 211
SWIDTH 540 0
DWIDTH 9 0
BBX 14 19 -5 0
BITMAP
3000
c800
8800
c800
7000
0000
0070
01bc
001c
001c
001c
0018
0038
0038
0038
0038
0030
0030
0070
ENDCHAR
STARTCHAR Ocircumflex
ENCODING 212
SWIDTH 0 0
DWIDTH 0 0
BBX 11 6 -10 14
BITMAP
0f00
3fc0
60c0
ff60
01e0
0020
ENDCHAR
STARTCHAR Otilde
ENCODING 213
SWIDTH 0 0
DWIDTH 0 0
BBX 11 7 -11 14
BITMAP
0060
0e60
3fe0
60c0
fe40
01c0
0040
ENDCHAR
STARTCHAR Odiaeresis
ENCODING 214
SWIDTH 0 0
DWIDTH 0 0
BBX 11 8 -10 14
BITMAP
00c0
00a0
0f20
3fc0
6180
fec0
01c0
0040
ENDCHAR
STARTCHAR multiply
ENCODING 215
SWIDTH 0 0
DWIDTH 0 0
BBX 11 8 -9 14
BITMAP
0360
0360
1fe0
71c0
40c0
fe40
01c0
0040
ENDCHAR
STARTCHAR Ooblique
ENCODING 216
SWIDTH 0 0
DWIDTH 0 0
BBX 5 6 -8 -7
BITMAP
70
98
d8
78
38
38
ENDCHAR
STARTCHAR Ugrave
ENCODING 217
SWIDTH 0 0
DWIDTH 0 0
BBX 8 6 -11 -7
BITMAP
67
97
f6
36
3e
3e
ENDCHAR
STARTCHAR Uacute
ENCODING 218
SWIDTH 0 0
DWIDTH 0 0
BBX 4 4 -7 -6
BITMAP
70
f0
f0
60
ENDCHAR
STARTCHAR Ucircumflex
ENCODING 219
SWIDTH 420 0
DWIDTH 7 0
BBX 0 0 0 0
BITMAP
ENDCHAR
STARTCHAR Udiaeresis
ENCODING 220
SWIDTH 420 0
DWIDTH 7 0
BBX 7 3 0 -3
BITMAP
7e
fe
82
ENDCHAR
STARTCHAR ssharp
ENCODING 223
SWIDTH 840 0
DWIDTH 14 0
BBX 14 18 0 -1
BITMAP
0040
0040
3fe0
1ef8
0edc
0e9c
1c9c
1cb8
1df0
1fc0
1df0
1d38
3938
3b38
3b70
7fe0
ff80
0200
ENDCHAR
STARTCHAR agrave
ENCODING 224
SWIDTH 360 0
DWIDTH 6 0
BBX 5 13 0 0
BITMAP
18
38
30
30
30
70
70
60
60
70
90
d0
60
ENDCHAR
STARTCHAR aacute
ENCODING 225
SWIDTH 660 0
DWIDTH 11 0
BBX 12 13 0 0
BITMAP
1860
38e0
30e0
30c0
30c0
71c0
71c0
6180
6180
71c0
9240
d340
6180
ENDCHAR
STARTCHAR acircumflex
ENCODING 226
SWIDTH 480 0
DWIDTH 8 0
BBX 9 22 1 0
BITMAP
1880
3f80
c600
6000
3800
1c00
0c00
0c00
1c00
1c00
1800
1800
1800
1800
3800
3800
3000
3000
3800
4800
6800
3000
ENDCHAR
STARTCHAR atilde
ENCODING 227
SWIDTH 420 0
DWIDTH 7 0
BBX 7 22 1 0
BITMAP
18
7c
8e
a6
a6
e6
4c
0c
0c
0c
1c
18
18
18
18
38
30
30
38
48
48
30
ENDCHAR
STARTCHAR adiaeresis
ENCODING 228
SWIDTH 540 0
DWIDTH 9 0
BBX 9 22 1 0
BITMAP
e300
6580
6d80
6d80
6b80
eb80
7b00
7300
0300
0700
0700
0700
0600
0600
0e00
0e00
0e00
0e00
0a00
1100
1200
0c00
ENDCHAR
STARTCHAR aring
ENCODING 229
SWIDTH 600 0
DWIDTH 10 0
BBX 7 19 2 -6
BITMAP
38
de
0e
0e
0e
0c
1c
1c
1c
1c
18
18
38
38
38
30
30
70
70
ENDCHAR
STARTCHAR ae
ENCODING 230
SWIDTH 660 0
DWIDTH 11 0
BBX 9 19 1 -6
BITMAP
2300
7700
5b80
cb80
8380
9380
d300
6700
0700
0700
0700
0600
0600
0e00
0e00
0e00
0c00
0c00
1c00
ENDCHAR
STARTCHAR ccedilla
ENCODING 231
SWIDTH 0 0
DWIDTH 0 0
BBX 9 7 -7 14
BITMAP
0380
3300
4c00
8600
b600
da00
0400
ENDCHAR
STARTCHAR egrave
ENCODING 232
SWIDTH 0 0
DWIDTH 0 0
BBX 3 4 -1 24
BITMAP
e0
c0
c0
c0
ENDCHAR
STARTCHAR eacute
ENCODING 233
SWIDTH 0 0
DWIDTH 0 0
BBX 7 5 -4 24
BITMAP
76
94
fc
78
60
ENDCHAR
STARTCHAR ecircumflex
ENCODING 234
SWIDTH 0 0
DWIDTH 0 0
BBX 10 7 -4 25
BITMAP
00c0
36c0
7e80
ca80
8300
9a00
7400
ENDCHAR
STARTCHAR ediaeresis
ENCODING 235
SWIDTH 0 0
DWIDTH 0 0
BBX 6 6 -3 25
BITMAP
10
30
fc
fc
30
20
ENDCHAR
STARTCHAR igrave
ENCODING 236
SWIDTH 0 0
DWIDTH 0 0
BBX 5 6 -1 23
BITMAP
08
10
70
80
a0
e0
ENDCHAR
STARTCHAR iacute
ENCODING 237
SWIDTH 0 0
DWIDTH 0 0
BBX 5 5 -5 14
BITMAP
30
c8
88
c8
70
ENDCHAR
STARTCHAR icircumflex
ENCODING 238
SWIDTH 0 0
DWIDTH 0 0
BBX 8 7 -3 15
BITMAP
07
18
10
38
c0
c0
f8
ENDCHAR
STARTCHAR idiaeresis
ENCODING 239
SWIDTH 660 0
DWIDTH 11 0
BBX 10 10 1 1
BITMAP
0f00
1080
2040
4f40
9f40
9f40
9e80
4080
6300
1c00
ENDCHAR
STARTCHAR eth
ENCODING 240
SWIDTH 720 0
DWIDTH 12 0
BBX 10 9 1 0
BITMAP
1e00
3180
60c0
c0c0
c0c0
c0c0
c180
6300
1e00
ENDCHAR
STARTCHAR ntilde
ENCODING 241
SWIDTH 660 0
DWIDTH 11 0
BBX 9 9 1 0
BITMAP
1e00
3f00
6180
dc80
dc80
dc80
4d00
7b00
0600
ENDCHAR
STARTCHAR ograve
ENCODING 242
SWIDTH 1020 0
DWIDTH 17 0
BBX 15 15 1 0
BITMAP
6000
7000
7000
7000
6000
6000
63cc
67fe
6c66
ea26
cb26
cb64
c6cc
e018
7fe0
ENDCHAR
STARTCHAR oacute
ENCODING 243
SWIDTH 960 0
DWIDTH 16 0
BBX 14 9 1 0
BITMAP
1f30
3ff8
63dc
c18c
808c
b888
b998
f310
6620
ENDCHAR
STARTCHAR ocircumflex
ENCODING 244
SWIDTH 960 0
DWIDTH 16 0
BBX 15 15 1 0
BITMAP
0002
0002
0006
000c
0070
07c0
1e00
70e0
61f0
c370
c320
c180
e1e0
7ff8
7818
ENDCHAR
STARTCHAR otilde
ENCODING 245
SWIDTH 960 0
DWIDTH 16 0
BBX 16 14 1 0
BITMAP
0003
01c3
0222
0226
03f8
01e0
0f00
3cf0
71f8
e1b8
c190
c1c0
61e0
7f78
ENDCHAR
STARTCHAR odiaeresis
ENCODING 246
SWIDTH 660 0
DWIDTH 11 0
BBX 9 15 1 0
BITMAP
4000
e000
6000
2000
2000
2000
7e00
6380
0180
4180
e180
e180
c300
6600
3c00
ENDCHAR
STARTCHAR division
ENCODING 247
SWIDTH 1020 0
DWIDTH 17 0
BBX 15 15 1 0
BITMAP
0010
0018
001c
000c
000e
0006
1cc6
3df6
7ff6
6734
c23c
c028
dc78
7c70
30e0
ENDCHAR
STARTCHAR oslash
ENCODING 248
SWIDTH 960 0
DWIDTH 16 0
BBX 15 15 1 0
BITMAP
0006
0006
0006
0006
000c
000c
1f18
3ff0
60e0
6000
c020
dc60
fe70
7760
23c0
ENDCHAR
STARTCHAR ugrave
ENCODING 249
SWIDTH 720 0
DWIDTH 12 0
BBX 12 15 1 0
BITMAP
0030
0030
0060
1fe0
3fc0
3000
1f80
3f80
7000
6700
c700
c300
c300
e200
3c00
ENDCHAR
STARTCHAR uacute
ENCODING 250
SWIDTH 960 0
DWIDTH 16 0
BBX 15 13 1 0
BITMAP
01e6
03e6
02ec
74cc
c4cc
8ccc
89cc
71dc
01d8
0198
0198
0398
0398
ENDCHAR
STARTCHAR ucircumflex
ENCODING 251
SWIDTH 1560 0
DWIDTH 26 0
BBX 24 12 1 0
BITMAP
1f0000
308000
600000
400000
c00000
802221
806643
806ae2
80fb26
c19218
630000
3e0000
ENDCHAR
STARTCHAR udiaeresis
ENCODING 252
SWIDTH 0 0
DWIDTH 0 0
BBX 5 7 -9 -14
BITMAP
70
98
98
d8
78
38
38
ENDCHAR
STARTCHAR yacute
ENCODING 253
SWIDTH 0 0
DWIDTH 0 0
BBX 8 7 -11 -14
BITMAP
67
d7
97
f6
36
2e
3e
ENDCHAR
STARTCHAR thorn
ENCODING 254
SWIDTH 0 0
DWIDTH 0 0
BBX 4 4 -8 -12
BITMAP
70
f0
f0
60
ENDCHAR
STARTCHAR C000400
ENCODING 256
SWIDTH 300 0
DWIDTH 5 0
BBX 0 0 0 0
BITMAP
ENDCHAR
STARTCHAR C000401
ENCODING 257
SWIDTH 300 0
DWIDTH 5 0
BBX 0 0 0 0
BITMAP
ENDCHAR
STARTCHAR C000430
ENCODING 280
SWIDTH 300 0
DWIDTH 5 0
BBX 0 0 0 0
BITMAP
ENDCHAR
STARTCHAR C001103
ENCODING 579
SWIDTH 600 0
DWIDTH 10 0
BBX 11 1 0 4
BITMAP
ffe0
ENDCHAR
STARTCHAR C001104
ENCODING 580
SWIDTH 1260 0
DWIDTH 21 0
BBX 21 1 0 4
BITMAP
fffff8
ENDCHAR
STARTCHAR C001107
ENCODING 583
SWIDTH 420 0
DWIDTH 7 0
BBX 4 6 3 8
BITMAP
30
40
40
e0
e0
e0
ENDCHAR
STARTCHAR C001110
ENCODING 584
SWIDTH 420 0
DWIDTH 7 0
BBX 4 6 3 8
BITMAP
70
70
70
20
20
c0
ENDCHAR
STARTCHAR C001113
ENCODING 587
SWIDTH 600 0
DWIDTH 10 0
BBX 9 6 2 8
BITMAP
1180
6200
4200
e600
e700
e700
ENDCHAR
STARTCHAR C001114
ENCODING 588
SWIDTH 600 0
DWIDTH 10 0
BBX 9 6 2 8
BITMAP
7380
7380
3380
2100
2300
c400
ENDCHAR
STARTCHAR C001115
ENCODING 589
SWIDTH 600 0
DWIDTH 10 0
BBX 9 6 -1 -3
BITMAP
7300
7380
3380
2100
2300
c400
ENDCHAR
STARTCHAR C001121
ENCODING 593
SWIDTH 420 0
DWIDTH 7 0
BBX 6 6 1 4
BITMAP
30
78
fc
fc
78
30
ENDCHAR
STARTCHAR C001122
ENCODING 594
SWIDTH 1260 0
DWIDTH 21 0
BBX 17 3 2 0
BITMAP
e1c380
e1c380
e1c380
ENDCHAR
ENDFONT
